<svg width="67" height="111" viewBox="0 0 67 111" fill="none" xmlns="http://www.w3.org/2000/svg">
<g clip-path="url(#clip0_2_317)">
<path d="M33.4169 76.7038C42.6737 72.1992 54.9094 65.4784 57.5155 58.1838C59.0754 53.8299 58.5551 47.3033 58.1752 42.5376L58.1433 42.1374C58.0538 41.011 57.9637 39.8893 57.8736 38.7714C57.3411 32.1537 56.8366 25.8818 56.5472 19.4208C47.4995 18.9545 39.7699 16.3544 33.5419 11.6825C27.3195 16.3548 19.5905 18.9545 10.5358 19.4208C10.2404 25.9942 9.70918 32.3773 9.14892 39.1121C9.06314 40.1425 8.97718 41.1762 8.89178 42.214L8.84917 42.7315C8.45915 47.4696 7.92497 53.959 9.45148 58.2755C12.0317 65.5341 24.2049 72.2215 33.4169 76.7038ZM18.5946 40.6297C18.7706 40.0911 19.275 39.7268 19.8438 39.7268C19.8448 39.7268 19.8457 39.7268 19.8467 39.7268L29.3334 39.7466L32.2505 30.7517C32.4257 30.2116 32.9307 29.8456 33.501 29.8456C33.501 29.8456 33.501 29.8456 33.5011 29.8456C34.0714 29.8456 34.5764 30.2118 34.7514 30.7521L37.6653 39.7468L47.1552 39.727C47.7217 39.7206 48.2309 40.0904 48.4073 40.6299C48.5838 41.1695 48.3906 41.7606 47.9293 42.0935L40.2406 47.6426L43.1917 56.6251C43.3689 57.1647 43.1765 57.7562 42.7152 58.0897C42.254 58.4235 41.6294 58.4224 41.1686 58.0882L33.501 52.5202L25.8335 58.0882C25.6028 58.2556 25.3311 58.3394 25.0593 58.3394C24.7882 58.3394 24.5172 58.2563 24.2871 58.0897C23.8258 57.7562 23.6334 57.1647 23.8106 56.6251L26.7616 47.6426L19.0728 42.0935C18.6113 41.7604 18.4181 41.1693 18.5946 40.6297Z" fill="white"/>
<path d="M33.417 86.0488C51.4103 77.4334 59.9956 71.3154 63.9689 64.3024C67.9406 57.2925 67.234 49.0982 66.1639 36.6947C65.5663 29.7655 64.8291 21.2162 64.7651 10.84C62.9313 11.0068 61.1492 11.0911 59.4494 11.0911C48.1552 11.0912 39.4489 7.36128 33.5414 0C27.6345 7.36072 18.9297 11.0907 7.63809 11.0911C5.93871 11.0912 4.15601 11.0068 2.32112 10.84C2.25543 21.3438 1.48795 29.9667 0.865937 36.9555C-0.229814 49.2674 -0.953746 57.4013 2.99025 64.3784C6.94268 71.3702 15.4938 77.4674 33.417 86.0488ZM6.23039 42.518L6.27281 42.0013C6.3584 40.962 6.44436 39.9275 6.53032 38.8966C7.12249 31.7791 7.68182 25.0566 7.96167 18.1112C7.98926 17.425 8.54539 16.8772 9.23479 16.8563C18.6425 16.5736 26.544 13.9325 32.7199 9.00609C33.1996 8.6231 33.8823 8.62291 34.3626 9.00553C40.5457 13.9325 48.4474 16.5738 57.8482 16.8561C58.5378 16.8768 59.0937 17.4248 59.1213 18.1108C59.3976 24.9479 59.9297 31.5611 60.493 38.5627C60.5831 39.6815 60.6734 40.8039 60.7629 41.9312L60.7946 42.3306C61.1933 47.3319 61.7393 54.1811 59.9911 59.0614C57.0413 67.3176 44.5466 74.2329 33.9909 79.3349C33.8098 79.4225 33.6133 79.4662 33.417 79.4662C33.2206 79.4662 33.0243 79.4225 32.8432 79.3349C23.1541 74.6525 9.93094 67.4655 6.97347 59.146C5.26039 54.3013 5.82103 47.4909 6.23039 42.518Z" fill="white"/>
<path d="M29.5566 47.5496L27.573 53.5872L32.7267 49.8447C32.9574 49.6773 33.2292 49.5934 33.5009 49.5934C33.7727 49.5934 34.0445 49.6771 34.2752 49.8447L39.429 53.5872L37.4457 47.5496C37.2685 47.0096 37.4613 46.4176 37.9232 46.0843L43.0962 42.351L36.7122 42.3642C36.7112 42.3642 36.7103 42.3642 36.7094 42.3642C36.1391 42.3642 35.6341 41.9982 35.4589 41.4578L33.5004 35.4125L31.5395 41.4581C31.3642 41.9982 30.8592 42.3642 30.2891 42.3642C30.2882 42.3642 30.2873 42.3642 30.2863 42.3642L23.9059 42.351L29.0789 46.0843C29.541 46.4178 29.7339 47.0098 29.5566 47.5496Z" fill="white"/>
<path d="M63.6639 86.1844H3.25587C2.53025 86.1844 1.94202 86.77 1.94202 87.4922C1.94202 88.2145 2.53025 88.8 3.25587 88.8H63.6637C64.3895 88.8 64.9776 88.2145 64.9776 87.4922C64.9776 86.77 64.3897 86.1844 63.6639 86.1844Z" fill="white"/>
</g>
<defs>
<clipPath id="clip0_2_317">
<rect width="67" height="111" fill="white"/>
</clipPath>
</defs>
</svg>
