<svg width="100" height="125" viewBox="0 0 100 125" fill="none" xmlns="http://www.w3.org/2000/svg">
<path d="M50 87.9C38.2 87.9 27.6 82.5 20.7 74H13.3C21 86 34.6 94 50 94C65.4 94 79 86 86.8 74H79.4C72.4 82.5 61.8 87.9 50 87.9Z" fill="white"/>
<path d="M25.8 20.8C32.4 15.4 40.8 12.1 50 12.1C59.2 12.1 67.6 15.4 74.2 20.8C76.2 19.9 78.5 19.4 80.8 19.4C81 19.4 81.3 19.4 81.5 19.4C73.5 11.2 62.4 6 50 6C37.6 6 26.5 11.1 18.5 19.3C18.7 19.3 19 19.3 19.2 19.3C21.6 19.3 23.8 19.9 25.8 20.8Z" fill="white"/>
<path d="M19.2001 45.4C24.7001 45.4 29.2001 40.9 29.2001 35.4C29.2001 29.9 24.7001 25.4 19.2001 25.4C13.7001 25.4 9.20007 29.9 9.20007 35.4C9.20007 40.9 13.7001 45.4 19.2001 45.4Z" fill="white"/>
<path d="M28 67C28 61.7 30 56.8 33.2 53.1C31.8 51 29.9 49.2 27.7 48C25.3 49.7 22.3 50.6 19.1 50.6C15.9 50.6 13 49.6 10.5 48C5.70002 50.7 2.40002 55.9 2.40002 61.8V63.9C2.40002 66.1 4.20002 67.9 6.40002 67.9H28V67Z" fill="white"/>
<path d="M70.8 35.4C70.8 40.9 75.3 45.4 80.8 45.4C86.3 45.4 90.8 40.9 90.8 35.4C90.8 29.9 86.3 25.4 80.8 25.4C75.3 25.4 70.8 29.9 70.8 35.4Z" fill="white"/>
<path d="M89.4001 48.1C86.9001 49.8 84.0001 50.7 80.8001 50.7C77.6001 50.7 74.7001 49.7 72.2001 48.1C70.0001 49.3 68.1001 51.1 66.7001 53.2C70.0001 56.8 72.0001 61.7 72.0001 67V68H93.5001C95.7001 68 97.5001 66.2 97.5001 64V61.9C97.5001 55.9 94.2001 50.8 89.4001 48.1Z" fill="white"/>
<path d="M50 50.6C55.5 50.6 60 46.1 60 40.6C60 35.1 55.5 30.6 50 30.6C44.5 30.6 40 35.1 40 40.6C40 46.1 44.5 50.6 50 50.6Z" fill="white"/>
<path d="M33.3 67V69.0999C33.3 71.2999 35.1 73.0999 37.3 73.0999H62.6C64.8 73.0999 66.6 71.2999 66.6 69.0999V67C66.6 61.1 63.3 55.9 58.5 53.2C56 54.9 53.1001 55.7999 49.9001 55.7999C46.7001 55.7999 43.8 54.8 41.3 53.2C36.6 55.9 33.3 61.1 33.3 67Z" fill="white"/>
</svg>
