<?xml version="1.0" encoding="utf-8"?>
<!-- Generator: Adobe Illustrator 23.0.1, SVG Export Plug-In . SVG Version: 6.00 Build 0)  -->
<svg version="1.1" xmlns="http://www.w3.org/2000/svg" xmlns:xlink="http://www.w3.org/1999/xlink" x="0px" y="0px"
	 viewBox="0 0 310.6 91.5" style="enable-background:new 0 0 310.6 91.5;" xml:space="preserve">
<style type="text/css">
	.st0{fill-rule:evenodd;clip-rule:evenodd;fill:#003E69;}
	.st1{fill:#003E69;}
	.st2{font-family:'Roboto-Medium';}
	.st3{font-size:33.3699px;}
	.st4{fill:none;stroke:#003E69;stroke-width:2;stroke-miterlimit:10;}
</style>
<g id="Layer_1">
</g>
<g id="Layer_2">
	<path class="st0" d="M45.8,0C71,0,91.5,20.5,91.5,45.8c0,1.2-0.1,2.4-0.1,3.6c-4.9,0-9.8,0-14.8,0c-1.8,15.4-14.9,27.4-30.8,27.4
		c-15.9,0-29-12-30.8-27.4H7.5c1.8,19.5,18.3,34.8,38.2,34.8c17.4,0,32.1-11.6,36.8-27.5h7.6c-4.9,20-22.9,34.8-44.4,34.8
		C20.5,91.5,0,71,0,45.8c0-1.2,0-2.4,0.1-3.6c7.4,0,14.8,0,22.2,0c-0.2,1.2-0.3,2.4-0.3,3.6c0,13.1,10.6,23.7,23.7,23.7
		c13.1,0,23.7-10.6,23.7-23.7c0-1.2-0.1-2.5-0.3-3.6c4.9,0,9.9,0,14.8,0C82.1,22.6,65.7,7.3,45.8,7.3c-17.4,0-32.1,11.6-36.8,27.5
		H1.3C6.2,14.8,24.3,0,45.8,0z"/>
</g>
<g id="Layer_3">
	<text transform="matrix(1 0 0 1 116.8901 58.8416)" class="st1 st2 st3">BETTER YOU</text>
	<line class="st4" x1="118.5" y1="72" x2="308.6" y2="72"/>
</g>
</svg>
