<svg width="100" height="125" viewBox="0 0 100 125" fill="none" xmlns="http://www.w3.org/2000/svg">
<path d="M50.4 5.80005H49.6H30L39.1 21.4H49.6H50.4H60.8L70 5.80005H50.4Z" fill="white"/>
<path d="M50 94.2C35.2 94.2 23.1 82.1 23.1 67.3C23.1 52.5 35.2 40.4 50 40.4C64.8 40.4 76.9 52.5 76.9 67.3C76.9 82.1 64.8 94.2 50 94.2ZM50 47.3C39 47.3 30 56.3 30 67.3C30 78.3 39 87.3 50 87.3C61 87.3 70 78.3 70 67.3C70 56.3 61 47.3 50 47.3Z" fill="white"/>
<path d="M83.3 20.7L72.5 5.80005L53.6 38.3C59.8 39.1 65.4 41.8 69.7 45.8L83.3 20.7Z" fill="white"/>
<path d="M27.5 5.80005L16.7 20.7L30.2999 45.8C34.6999 41.8 40.2 39.1 46.4 38.3L27.5 5.80005Z" fill="white"/>
<path d="M64.1 62.5H55.4C55 62.5 54.7 62.3 54.6 61.9L50.8 52.9C50.5 52.2 49.4 52.2 49.1 52.9L45.3 61.9C45.2 62.2 44.8 62.5 44.5 62.5H35.8C34.9 62.5 34.6 63.6 35.3 64.1L41.8 68.7C42.1 68.9 42.3 69.4 42.1 69.7L38.8 78.9C38.5 79.7 39.4 80.4 40.1 80L49.4 74.7C49.7 74.5 50 74.5 50.3 74.7L59.7 80C60.4 80.4 61.3 79.7 61 78.9L57.6 69.7C57.5 69.3 57.6 68.9 57.9 68.7L64.4 64.1C65.4 63.7 65 62.5 64.1 62.5Z" fill="white"/>
</svg>
