<svg width="100" height="125" viewBox="0 0 100 125" fill="none" xmlns="http://www.w3.org/2000/svg">
<path d="M56.2 25.3L60.9 28.1C64 29.9 66.4 32.6 67.9 35.8L71 42.6L80.6 34.6C82.4 33.1 85 33.3 86.6 35C88.2 36.8 88 39.6 86.2 41.2L74.3 51.2C71.8 53.3 68 52.9 66 50.3L59.8 42.1L51.3 54.9L61 62.2C64.2 64.6 65.3 68.8 63.8 72.4L56.4 89.6C55.2 92.3 52 93.4 49.4 92.1C47.1 90.9 46.1 88 47.1 85.6L53.7 71L38.8 60.4C34.3 57.2 33.1 51.1 35.9 46.4L44.5 32.3L32.2 34.7L22.9 43C20.7 44.3 17.9 43.6 16.5 41.4C15 39.1 15.8 36 18.2 34.7L28.6 26.1C29.2 25.8 29.8 25.5 30.4 25.4L43.1 23.4C47.6 22.3 52.3 22.9 56.2 25.3Z" fill="white"/>
<path d="M35.5 61.1L45.1 67.3L42.5 78.1C41.8 80.7 40 82.9 37.6 84.1L19 93.1C16.7 94.2 13.9 93.2 12.7 90.9C11.6 88.6 12.5 85.8 14.8 84.7L32.3 75.7L35.5 61.1Z" fill="white"/>
<path d="M64.3 25.1C69.4363 25.1 73.6 20.9362 73.6 15.8C73.6 10.6638 69.4363 6.5 64.3 6.5C59.1638 6.5 55 10.6638 55 15.8C55 20.9362 59.1638 25.1 64.3 25.1Z" fill="white"/>
</svg>
